<?xml version="1.0" encoding="UTF-8"?>
<mxfile host="app.diagrams.net" modified="2025-10-21T17:55:00.000Z" agent="5.0" etag="xxx" version="24.7.17" type="device">
  <diagram name="Business Entities UML" id="business-entities">
    <mxGraphModel dx="1422" dy="794" grid="1" gridSize="10" guides="1" tooltips="1" connect="1" arrows="1" fold="1" page="1" pageScale="1" pageWidth="1169" pageHeight="827" math="0" shadow="0">
      <root>
        <mxCell id="0" />
        <mxCell id="1" parent="0" />
        

        <!-- User -->
        <mxCell id="user" value="User" style="swimlane;fontStyle=0;align=center;verticalAlign=top;childLayout=stackLayout;horizontal=1;startSize=26;horizontalStack=0;resizeParent=1;resizeParentMax=0;resizeLast=0;collapsible=1;marginBottom=0;whiteSpace=wrap;html=1;fillColor=#d5e8d4;strokeColor=#82b366;" vertex="1" parent="1">
          <mxGeometry x="350" y="20" width="200" height="200" as="geometry" />
        </mxCell>
        <mxCell id="userFields" value="- id: string&#xa;- email: string&#xa;- phoneNumber: string&#xa;- fullName: string&#xa;- gender: Gender&#xa;- birthDate: string&#xa;- profession: string&#xa;- inactivated_at: Date | null&#xa;- created_at: Date&#xa;- updated_at: Date" style="text;strokeColor=none;fillColor=none;align=left;verticalAlign=top;spacingLeft=4;spacingRight=4;overflow=hidden;rotatable=0;points=[[0,0.5],[1,0.5]];portConstraint=eastwest;whiteSpace=wrap;html=1;" vertex="1" parent="user">
          <mxGeometry y="26" width="200" height="174" as="geometry" />
        </mxCell>

        <!-- Address -->
        <mxCell id="address" value="Address" style="swimlane;fontStyle=0;align=center;verticalAlign=top;childLayout=stackLayout;horizontal=1;startSize=26;horizontalStack=0;resizeParent=1;resizeParentMax=0;resizeLast=0;collapsible=1;marginBottom=0;whiteSpace=wrap;html=1;fillColor=#fff2cc;strokeColor=#d6b656;" vertex="1" parent="1">
          <mxGeometry x="650" y="20" width="150" height="100" as="geometry" />
        </mxCell>
        <mxCell id="addressFields" value="- city: string&#xa;- postalCode: string&#xa;- street: string&#xa;- state: string" style="text;strokeColor=none;fillColor=none;align=left;verticalAlign=top;spacingLeft=4;spacingRight=4;overflow=hidden;rotatable=0;points=[[0,0.5],[1,0.5]];portConstraint=eastwest;whiteSpace=wrap;html=1;" vertex="1" parent="address">
          <mxGeometry y="26" width="150" height="74" as="geometry" />
        </mxCell>

        <!-- BankAccount -->
        <mxCell id="bankAccount" value="BankAccount" style="swimlane;fontStyle=0;align=center;verticalAlign=top;childLayout=stackLayout;horizontal=1;startSize=26;horizontalStack=0;resizeParent=1;resizeParentMax=0;resizeLast=0;collapsible=1;marginBottom=0;whiteSpace=wrap;html=1;fillColor=#fff2cc;strokeColor=#d6b656;" vertex="1" parent="1">
          <mxGeometry x="350" y="270" width="200" height="150" as="geometry" />
        </mxCell>
        <mxCell id="bankAccountFields" value="- id: string&#xa;- userId: string&#xa;- bankAccountType: 'checking' | 'savings'&#xa;- name: BankAccountName&#xa;- code: string&#xa;- agencyNumber: string&#xa;- accountNumber: string&#xa;- accountDigit: string" style="text;strokeColor=none;fillColor=none;align=left;verticalAlign=top;spacingLeft=4;spacingRight=4;overflow=hidden;rotatable=0;points=[[0,0.5],[1,0.5]];portConstraint=eastwest;whiteSpace=wrap;html=1;" vertex="1" parent="bankAccount">
          <mxGeometry y="26" width="200" height="124" as="geometry" />
        </mxCell>

        <!-- PrivatePlanAccount -->
        <mxCell id="privatePlanAccount" value="PrivatePlanAccount" style="swimlane;fontStyle=0;align=center;verticalAlign=top;childLayout=stackLayout;horizontal=1;startSize=26;horizontalStack=0;resizeParent=1;resizeParentMax=0;resizeLast=0;collapsible=1;marginBottom=0;whiteSpace=wrap;html=1;fillColor=#d5e8d4;strokeColor=#82b366;" vertex="1" parent="1">
          <mxGeometry x="50" y="270" width="200" height="150" as="geometry" />
        </mxCell>
        <mxCell id="privatePlanAccountFields" value="- id: string&#xa;- userId: string&#xa;- cashAvailableForWithdrawal: number&#xa;- cashBalance: number&#xa;- modality: 'VGBL' | 'PGBL'&#xa;- inactivated_at: Date | null&#xa;- created_at: Date&#xa;- updated_at: Date" style="text;strokeColor=none;fillColor=none;align=left;verticalAlign=top;spacingLeft=4;spacingRight=4;overflow=hidden;rotatable=0;points=[[0,0.5],[1,0.5]];portConstraint=eastwest;whiteSpace=wrap;html=1;" vertex="1" parent="privatePlanAccount">
          <mxGeometry y="26" width="200" height="124" as="geometry" />
        </mxCell>

        <!-- PrivatePlanDeposit -->
        <mxCell id="privatePlanDeposit" value="PrivatePlanDeposit" style="swimlane;fontStyle=0;align=center;verticalAlign=top;childLayout=stackLayout;horizontal=1;startSize=26;horizontalStack=0;resizeParent=1;resizeParentMax=0;resizeLast=0;collapsible=1;marginBottom=0;whiteSpace=wrap;html=1;fillColor=#f8cecc;strokeColor=#b85450;" vertex="1" parent="1">
          <mxGeometry x="50" y="470" width="200" height="200" as="geometry" />
        </mxCell>
        <mxCell id="privatePlanDepositFields" value="- id: string&#xa;- userId: string&#xa;- accountId: string&#xa;- sourceBankAccountId: string&#xa;- sourceTransactionId: string&#xa;- destinationPrivatePlanAccountId: string&#xa;- destinationTransactionId: string&#xa;- processed: boolean&#xa;- sentToDestination: boolean&#xa;- userCredited: boolean&#xa;- amount: number&#xa;- cancelRequested: boolean&#xa;- canceled: boolean&#xa;- comment: string&#xa;- release_at: Date&#xa;- created_at: Date&#xa;- updated_at: Date" style="text;strokeColor=none;fillColor=none;align=left;verticalAlign=top;spacingLeft=4;spacingRight=4;overflow=hidden;rotatable=0;points=[[0,0.5],[1,0.5]];portConstraint=eastwest;whiteSpace=wrap;html=1;" vertex="1" parent="privatePlanDeposit">
          <mxGeometry y="26" width="200" height="174" as="geometry" />
        </mxCell>

        <!-- PrivatePlanWithdrawal -->
        <mxCell id="privatePlanWithdrawal" value="PrivatePlanWithdrawal" style="swimlane;fontStyle=0;align=center;verticalAlign=top;childLayout=stackLayout;horizontal=1;startSize=26;horizontalStack=0;resizeParent=1;resizeParentMax=0;resizeLast=0;collapsible=1;marginBottom=0;whiteSpace=wrap;html=1;fillColor=#f8cecc;strokeColor=#b85450;" vertex="1" parent="1">
          <mxGeometry x="350" y="470" width="200" height="300" as="geometry" />
        </mxCell>
        <mxCell id="privatePlanWithdrawalFields" value="- id: string&#xa;- sourcePrivatePlanAccountId: string&#xa;- sourceTransactionId: string&#xa;- destinationBankAccountId: string&#xa;- destinationTransactionId: string&#xa;- bankStatus: BankTransferStatus&#xa;- bankAttemptCount: number&#xa;- notifySuccessState: NotificationDeliveryState&#xa;- notifyFailureState: NotificationDeliveryState&#xa;- notifyAttemptCount: number&#xa;- nextRetryAt?: Date&#xa;- lastError?: string&#xa;- processed: boolean&#xa;- sentToDestination: boolean&#xa;- userCredited: boolean&#xa;- amount: number&#xa;- cancelRequested: boolean&#xa;- canceled: boolean&#xa;- comment: string&#xa;- step: PrivatePlanWithdrawalStep&#xa;- stepRetrialCount: number&#xa;- stepHistory: StepHistory[]&#xa;- notifications: Notification[]&#xa;- created_at: Date&#xa;- updated_at: Date" style="text;strokeColor=none;fillColor=none;align=left;verticalAlign=top;spacingLeft=4;spacingRight=4;overflow=hidden;rotatable=0;points=[[0,0.5],[1,0.5]];portConstraint=eastwest;whiteSpace=wrap;html=1;" vertex="1" parent="privatePlanWithdrawal">
          <mxGeometry y="26" width="200" height="274" as="geometry" />
        </mxCell>

        <!-- Enums -->
        <mxCell id="enums" value="Enums" style="swimlane;fontStyle=0;align=center;verticalAlign=top;childLayout=stackLayout;horizontal=1;startSize=26;horizontalStack=0;resizeParent=1;resizeParentMax=0;resizeLast=0;collapsible=1;marginBottom=0;whiteSpace=wrap;html=1;fillColor=#e1d5e7;strokeColor=#9673a6;" vertex="1" parent="1">
          <mxGeometry x="650" y="270" width="200" height="200" as="geometry" />
        </mxCell>
        <mxCell id="enumFields" value="PrivatePlanWithdrawalStep:&#xa;  CREATED, DEBITING, SENDING_TO_BANK,&#xa;  RECEIVED_BANK_RESPONSE, ROLLING_BACK,&#xa;  COMPLETED, FAILED, INSUFFICIENT_FUNDS&#xa;&#xa;BankTransferStatus:&#xa;  PENDING, ACCEPTED, REJECTED&#xa;&#xa;NotificationDeliveryState:&#xa;  PENDING, SENT, RETRYING, FAILED&#xa;&#xa;BankAccountName:&#xa;  BRADESCO, ITAU, CAIXA&#xa;&#xa;Gender:&#xa;  male, female, other&#xa;&#xa;Source:&#xa;  system, whatsapp, ops" style="text;strokeColor=none;fillColor=none;align=left;verticalAlign=top;spacingLeft=4;spacingRight=4;overflow=hidden;rotatable=0;points=[[0,0.5],[1,0.5]];portConstraint=eastwest;whiteSpace=wrap;html=1;" vertex="1" parent="enums">
          <mxGeometry y="26" width="200" height="174" as="geometry" />
        </mxCell>


        <!-- Composition relationships -->
        <mxCell id="userAddressComposition" value="1" style="endArrow=none;html=1;rounded=0;exitX=1;exitY=0.5;exitDx=0;exitDy=0;entryX=0;entryY=0.5;entryDx=0;entryDy=0;" edge="1" parent="1" source="user" target="address">
          <mxGeometry width="50" height="50" relative="1" as="geometry">
            <mxPoint x="550" y="120" as="sourcePoint" />
            <mxPoint x="600" y="70" as="targetPoint" />
          </mxGeometry>
        </mxCell>
        <mxCell id="userAddressCompositionLabel" value="address" style="edgeLabel;html=1;align=center;verticalAlign=middle;resizable=0;points=[];" vertex="1" connectable="0" parent="userAddressComposition">
          <mxGeometry x="-0.1" y="-1" relative="1" as="geometry">
            <mxPoint as="offset" />
          </mxGeometry>
        </mxCell>

        <!-- Aggregation relationships -->
        <mxCell id="userPrivatePlanAccountAggregation" value="*" style="endArrow=none;html=1;rounded=0;exitX=0;exitY=0.5;exitDx=0;exitDy=0;entryX=1;entryY=0.5;entryDx=0;entryDy=0;" edge="1" parent="1" source="user" target="privatePlanAccount">
          <mxGeometry width="50" height="50" relative="1" as="geometry">
            <mxPoint x="350" y="120" as="sourcePoint" />
            <mxPoint x="400" y="70" as="targetPoint" />
          </mxGeometry>
        </mxCell>
        <mxCell id="userPrivatePlanAccountAggregationLabel" value="accounts" style="edgeLabel;html=1;align=center;verticalAlign=middle;resizable=0;points=[];" vertex="1" connectable="0" parent="userPrivatePlanAccountAggregation">
          <mxGeometry x="-0.1" y="-1" relative="1" as="geometry">
            <mxPoint as="offset" />
          </mxGeometry>
        </mxCell>

        <mxCell id="userBankAccountAggregation" value="*" style="endArrow=none;html=1;rounded=0;exitX=0.5;exitY=1;exitDx=0;exitDy=0;entryX=0.5;entryY=0;entryDx=0;entryDy=0;" edge="1" parent="1" source="user" target="bankAccount">
          <mxGeometry width="50" height="50" relative="1" as="geometry">
            <mxPoint x="450" y="220" as="sourcePoint" />
            <mxPoint x="500" y="170" as="targetPoint" />
          </mxGeometry>
        </mxCell>
        <mxCell id="userBankAccountAggregationLabel" value="bankAccounts" style="edgeLabel;html=1;align=center;verticalAlign=middle;resizable=0;points=[];" vertex="1" connectable="0" parent="userBankAccountAggregation">
          <mxGeometry x="-0.1" y="-1" relative="1" as="geometry">
            <mxPoint as="offset" />
          </mxGeometry>
        </mxCell>

        <mxCell id="privatePlanAccountDepositAggregation" value="*" style="endArrow=none;html=1;rounded=0;exitX=0.5;exitY=1;exitDx=0;exitDy=0;entryX=0.5;entryY=0;entryDx=0;entryDy=0;" edge="1" parent="1" source="privatePlanAccount" target="privatePlanDeposit">
          <mxGeometry width="50" height="50" relative="1" as="geometry">
            <mxPoint x="150" y="420" as="sourcePoint" />
            <mxPoint x="200" y="370" as="targetPoint" />
          </mxGeometry>
        </mxCell>
        <mxCell id="privatePlanAccountDepositAggregationLabel" value="deposits" style="edgeLabel;html=1;align=center;verticalAlign=middle;resizable=0;points=[];" vertex="1" connectable="0" parent="privatePlanAccountDepositAggregation">
          <mxGeometry x="-0.1" y="-1" relative="1" as="geometry">
            <mxPoint as="offset" />
          </mxGeometry>
        </mxCell>

        <mxCell id="privatePlanAccountWithdrawalAggregation" value="*" style="endArrow=none;html=1;rounded=0;exitX=1;exitY=0.5;exitDx=0;exitDy=0;entryX=0;entryY=0.5;entryDx=0;entryDy=0;" edge="1" parent="1" source="privatePlanAccount" target="privatePlanWithdrawal">
          <mxGeometry width="50" height="50" relative="1" as="geometry">
            <mxPoint x="250" y="345" as="sourcePoint" />
            <mxPoint x="300" y="295" as="targetPoint" />
          </mxGeometry>
        </mxCell>
        <mxCell id="privatePlanAccountWithdrawalAggregationLabel" value="withdrawals" style="edgeLabel;html=1;align=center;verticalAlign=middle;resizable=0;points=[];" vertex="1" connectable="0" parent="privatePlanAccountWithdrawalAggregation">
          <mxGeometry x="-0.1" y="-1" relative="1" as="geometry">
            <mxPoint as="offset" />
          </mxGeometry>
        </mxCell>

        <!-- Title -->
        <mxCell id="title" value="Private Plan Challenge - Business Entities UML Class Diagram" style="text;html=1;strokeColor=none;fillColor=none;align=center;verticalAlign=middle;whiteSpace=wrap;rounded=0;fontSize=16;fontStyle=1;" vertex="1" parent="1">
          <mxGeometry x="300" y="10" width="400" height="30" as="geometry" />
        </mxCell>

      </root>
    </mxGraphModel>
  </diagram>
</mxfile>
